<?xml version="1.0" encoding="utf-8"?>
<!-- Generator: Adobe Illustrator 15.0.0, SVG Export Plug-In . SVG Version: 6.00 Build 0)  -->
<!DOCTYPE svg PUBLIC "-//W3C//DTD SVG 1.1//EN" "http://www.w3.org/Graphics/SVG/1.1/DTD/svg11.dtd">
<svg version="1.1" id="Layer_1" xmlns="http://www.w3.org/2000/svg" xmlns:xlink="http://www.w3.org/1999/xlink" x="0px" y="0px"
	 width="985px" height="630px" viewBox="0 0 985 630" enable-background="new 0 0 985 630" xml:space="preserve">
<g>
	<path fill="#525252" d="M95.721,570.816h793.553c16.423,0,29.759-13.342,29.759-29.758V30.917
		c0-16.407-13.336-29.757-29.759-29.757H95.721c-16.406,0-29.758,13.351-29.758,29.757v510.141
		C65.963,557.475,79.322,570.816,95.721,570.816z M91.47,30.917c0-2.345,1.905-4.251,4.251-4.251h793.553
		c2.351,0,4.25,1.906,4.25,4.251v510.141c0,2.357-1.899,4.252-4.25,4.252H95.721c-2.346,0-4.251-1.895-4.251-4.252V30.917z
		 M983.017,593.594v23.814c0,6.309-5.113,11.432-11.425,11.432H13.409c-6.306,0-11.426-5.123-11.426-11.432v-23.814H404.89
		c1.988,6.643,8.075,11.516,15.361,11.516h144.503c7.283,0,13.368-4.865,15.369-11.516H983.017z"/>
</g>
<g>
	<g>
		<g>
			<path fill="#525252" d="M157.883,332.258v177.83L117.11,469.32c-3.442-3.439-8.959-3.439-12.401,0
				c-3.441,3.438-3.441,8.949,0,12.395l55.773,55.705c1.686,1.686,3.956,2.6,6.165,2.6c2.205,0,4.479-0.846,6.169-2.6l55.702-55.705
				c3.445-3.445,3.445-8.959,0-12.395c-3.442-3.439-8.956-3.439-12.397,0l-40.71,40.768V229.619"/>
		</g>
	</g>
</g>
<g>
	<g>
		<g>
			<path fill="#525252" d="M175.349,242.541V64.71l40.777,40.769c3.437,3.446,8.959,3.446,12.401,0
				c3.438-3.438,3.438-8.951,0-12.401l-55.772-55.702c-1.69-1.682-3.961-2.598-6.165-2.598c-2.208,0-4.48,0.846-6.169,2.598
				l-55.702,55.702c-3.45,3.45-3.45,8.962,0,12.401c3.434,3.446,8.951,3.446,12.396,0l40.707-40.769v268.711"/>
		</g>
	</g>
</g>
<g>
	<g>
		<g>
			<path fill="#525252" d="M370.635,484.266h479.931l-40.77,40.768c-3.438,3.445-3.438,8.969,0,12.406
				c3.438,3.438,8.951,3.438,12.396,0l55.707-55.771c1.687-1.688,2.6-3.963,2.6-6.17c0-2.199-0.847-4.477-2.6-6.162l-55.707-55.705
				c-3.444-3.445-8.957-3.445-12.396,0c-3.438,3.445-3.438,8.959,0,12.396l40.77,40.711H309.893"/>
		</g>
	</g>
</g>
<g>
	<g>
		<g>
			<path fill="#525252" d="M309.893,466.795H132.06l40.769-40.77c3.447-3.438,3.447-8.967,0-12.402
				c-3.437-3.439-8.951-3.439-12.399,0l-55.702,55.77c-1.682,1.688-2.6,3.961-2.6,6.17s0.848,4.477,2.6,6.16l55.702,55.705
				c3.449,3.447,8.962,3.447,12.399,0c3.447-3.428,3.447-8.951,0-12.395l-40.769-40.701h268.711"/>
		</g>
	</g>
</g>
<rect x="441.49" y="371.68" fill="none" width="93.909" height="94.949"/>
<text transform="matrix(1 0 0 1 457.8359 447.3848)" fill="#525252" font-family="'LetterGothicStd-Slanted'" font-size="102.0291">w</text>
<rect x="176.496" y="229.617" fill="none" width="93.901" height="94.939"/>
<text transform="matrix(1 0 0 1 192.8384 305.3218)" fill="#525252" font-family="'LetterGothicStd-Slanted'" font-size="102.0291">h</text>
</svg>
